<?xml version="1.0" encoding="UTF-8" standalone="no"?>
<svg
   xmlns:dc="http://purl.org/dc/elements/1.1/"
   xmlns:cc="http://creativecommons.org/ns#"
   xmlns:rdf="http://www.w3.org/1999/02/22-rdf-syntax-ns#"
   xmlns:svg="http://www.w3.org/2000/svg"
   xmlns="http://www.w3.org/2000/svg"
   id="svg8"
   version="1.1"
   viewBox="0 0 100 100"
   height="100"
   width="100">
  <title
     id="title4530">dial</title>
  <defs
     id="defs2">
    <clipPath
       id="clipPath4563"
       clipPathUnits="userSpaceOnUse">
      <circle
         r="50"
         cy="50.000004"
         cx="50"
         id="circle4565"
         style="opacity:1;fill:#5b5c71;fill-opacity:1;stroke:none;stroke-width:2;stroke-linecap:square;stroke-linejoin:miter;stroke-miterlimit:4;stroke-dasharray:none;stroke-opacity:1;paint-order:stroke markers fill" />
    </clipPath>
  </defs>
  <metadata
     id="metadata5">
    <rdf:RDF>
      <cc:Work
         rdf:about="">
        <dc:format>image/svg+xml</dc:format>
        <dc:type
           rdf:resource="http://purl.org/dc/dcmitype/StillImage" />
        <dc:title>dial</dc:title>
      </cc:Work>
    </rdf:RDF>
  </metadata>
  <g
     transform="translate(-2.5775223,-255.24606)"
     id="layer1">
    <circle
       r="50"
       cy="305.24606"
       cx="52.577522"
       id="path4524"
       style="opacity:1;fill:#4e4f61;fill-opacity:1;stroke:none;stroke-width:2;stroke-linecap:square;stroke-linejoin:miter;stroke-miterlimit:4;stroke-dasharray:none;stroke-opacity:1;paint-order:stroke markers fill" />
    <circle
       style="opacity:1;fill:#5b5c71;fill-opacity:1;stroke:none;stroke-width:2;stroke-linecap:square;stroke-linejoin:miter;stroke-miterlimit:4;stroke-dasharray:none;stroke-opacity:1;paint-order:stroke markers fill"
       id="circle4547"
       cx="52.577522"
       cy="305.24606"
       r="50" />
    <path
       style="opacity:1;fill:#5b5c71;fill-opacity:1;stroke:none;stroke-width:2;stroke-linecap:square;stroke-linejoin:miter;stroke-miterlimit:4;stroke-dasharray:none;stroke-opacity:1;paint-order:stroke markers fill"
       id="path4532"
       d="m 52.577523,339.43207 c -21.65582,0 -13.225515,4.05982 -26.727698,-12.87138 -13.502183,-16.9312 -11.42007,-7.80887 -6.601197,-28.92173 4.818873,-21.11286 -1.015079,-13.79732 18.49614,-23.19343 19.511219,-9.3961 10.154287,-9.3961 29.665506,0 19.51122,9.39611 13.677268,2.08057 18.496142,23.19343 4.818873,21.11286 6.900987,11.99053 -6.601196,28.92173 -13.502182,16.9312 -5.071877,12.87138 -26.727697,12.87138 z" />
    <path
       clip-path="url(#clipPath4563)"
       id="rect4534"
       transform="translate(2.5775223,255.24606)"
       d="M 46 -1 L 46 32 A 3.9999998 3.9999998 0 0 0 50 36 A 3.9999998 3.9999998 0 0 0 54 32 L 54 -1 L 46 -1 z "
       style="opacity:1;fill:#ffffff;fill-opacity:1;stroke:none;stroke-width:1.99999976;stroke-linecap:square;stroke-linejoin:miter;stroke-miterlimit:4;stroke-dasharray:none;stroke-opacity:1;paint-order:stroke markers fill" />
    <path
       id="circle4555"
       transform="translate(2.5775223,255.24606)"
       d="M 50 0 A 50 50 0 0 0 0 50 A 50 50 0 0 0 50 100 A 50 50 0 0 0 100 50 A 50 50 0 0 0 50 0 z M 50 12.152344 C 52.538572 12.152344 55.076421 14.501165 64.832031 19.199219 C 84.343251 28.595326 78.509251 21.279715 83.328125 42.392578 C 88.146999 63.505441 90.230698 54.383251 76.728516 71.314453 C 63.226333 88.245655 71.65582 84.185546 50 84.185547 C 28.34418 84.185547 36.773668 88.245654 23.271484 71.314453 C 9.7693012 54.383252 11.853002 63.505441 16.671875 42.392578 C 21.490748 21.279715 15.65675 28.595327 35.167969 19.199219 C 44.923578 14.501164 47.461428 12.152344 50 12.152344 z "
       style="opacity:0.1;fill:#000000;fill-opacity:1;stroke:none;stroke-width:2;stroke-linecap:square;stroke-linejoin:miter;stroke-miterlimit:4;stroke-dasharray:none;stroke-opacity:1;paint-order:stroke markers fill" />
    <path
       id="path4528"
       transform="translate(0,290.64999)"
       d="m 52.578125,-27.189453 c -2.802724,0 -5.606221,2.592385 -16.376953,7.779297 C 14.659707,-9.0363327 21.101552,-17.112503 15.78125,6.1972656 10.460948,29.507034 8.1612024,19.435924 23.068359,38.128906 37.975516,56.821889 28.668902,52.339844 52.578125,52.339844 76.487348,52.339843 67.178781,56.82189 82.085938,38.128906 96.993094,19.435923 94.695303,29.507034 89.375,6.1972656 84.054697,-17.112503 90.494591,-9.0363339 68.953125,-19.410156 c -10.770733,-5.186911 -13.572276,-7.779297 -16.375,-7.779297 z m 0,3.9375 c 2.538572,0 5.076421,2.348821 14.832031,7.046875 19.51122,9.3961073 13.67722,2.080496 18.496094,23.1933592 C 90.725124,28.101144 92.80687,18.978954 79.304688,35.910156 65.802505,52.841358 74.233945,48.781249 52.578125,48.78125 30.922305,48.781251 39.351793,52.841357 25.849609,35.910156 12.347426,18.978955 14.429174,28.101144 19.248047,6.9882812 24.06692,-14.124582 18.232922,-6.8089696 37.744141,-16.205078 c 9.755609,-4.698054 12.295412,-7.046875 14.833984,-7.046875 z"
       style="opacity:0.1;fill:#000000;fill-opacity:1;stroke:none;stroke-width:2;stroke-linecap:square;stroke-linejoin:miter;stroke-miterlimit:4;stroke-dasharray:none;stroke-opacity:1;paint-order:stroke markers fill" />
  </g>
</svg>
